<svg width="24" height="25" viewBox="0 0 24 25" fill="none" xmlns="http://www.w3.org/2000/svg">
<g id="icons/instagram">
<g id="Vector">
<mask id="path-1-inside-1_169_818" fill="white">
<path d="M15 23.4165H9C3.57 23.4165 1.25 21.0965 1.25 15.6665V9.6665C1.25 4.2365 3.57 1.9165 9 1.9165H15C20.43 1.9165 22.75 4.2365 22.75 9.6665V15.6665C22.75 21.0965 20.43 23.4165 15 23.4165ZM9 3.4165C4.39 3.4165 2.75 5.0565 2.75 9.6665V15.6665C2.75 20.2765 4.39 21.9165 9 21.9165H15C19.61 21.9165 21.25 20.2765 21.25 15.6665V9.6665C21.25 5.0565 19.61 3.4165 15 3.4165H9Z"/>
</mask>
<path d="M15 23.4165H9C3.57 23.4165 1.25 21.0965 1.25 15.6665V9.6665C1.25 4.2365 3.57 1.9165 9 1.9165H15C20.43 1.9165 22.75 4.2365 22.75 9.6665V15.6665C22.75 21.0965 20.43 23.4165 15 23.4165ZM9 3.4165C4.39 3.4165 2.75 5.0565 2.75 9.6665V15.6665C2.75 20.2765 4.39 21.9165 9 21.9165H15C19.61 21.9165 21.25 20.2765 21.25 15.6665V9.6665C21.25 5.0565 19.61 3.4165 15 3.4165H9Z" fill="#101010"/>
<path d="M15 21.9165H9V24.9165H15V21.9165ZM9 21.9165C6.45719 21.9165 4.99977 21.3675 4.14941 20.5171C3.29905 19.6667 2.75 18.2093 2.75 15.6665H-0.25C-0.25 18.5537 0.360951 20.9713 2.02809 22.6384C3.69523 24.3056 6.11281 24.9165 9 24.9165V21.9165ZM2.75 15.6665V9.6665H-0.25V15.6665H2.75ZM2.75 9.6665C2.75 7.12369 3.29905 5.66628 4.14941 4.81591C4.99977 3.96555 6.45719 3.4165 9 3.4165V0.416504C6.11281 0.416504 3.69523 1.02746 2.02809 2.69459C0.360951 4.36173 -0.25 6.77932 -0.25 9.6665H2.75ZM9 3.4165H15V0.416504H9V3.4165ZM15 3.4165C17.5428 3.4165 19.0002 3.96555 19.8506 4.81591C20.701 5.66628 21.25 7.12369 21.25 9.6665H24.25C24.25 6.77932 23.639 4.36173 21.9719 2.69459C20.3048 1.02746 17.8872 0.416504 15 0.416504V3.4165ZM21.25 9.6665V15.6665H24.25V9.6665H21.25ZM21.25 15.6665C21.25 18.2093 20.701 19.6667 19.8506 20.5171C19.0002 21.3675 17.5428 21.9165 15 21.9165V24.9165C17.8872 24.9165 20.3048 24.3056 21.9719 22.6384C23.639 20.9713 24.25 18.5537 24.25 15.6665H21.25ZM9 1.9165C6.58917 1.9165 4.50797 2.32972 3.08559 3.75209C1.66321 5.17447 1.25 7.25567 1.25 9.6665H4.25C4.25 7.46733 4.65679 6.42354 5.20691 5.87341C5.75703 5.32329 6.80083 4.9165 9 4.9165V1.9165ZM1.25 9.6665V15.6665H4.25V9.6665H1.25ZM1.25 15.6665C1.25 18.0773 1.66321 20.1585 3.08559 21.5809C4.50797 23.0033 6.58917 23.4165 9 23.4165V20.4165C6.80083 20.4165 5.75703 20.0097 5.20691 19.4596C4.65679 18.9095 4.25 17.8657 4.25 15.6665H1.25ZM9 23.4165H15V20.4165H9V23.4165ZM15 23.4165C17.4108 23.4165 19.492 23.0033 20.9144 21.5809C22.3368 20.1585 22.75 18.0773 22.75 15.6665H19.75C19.75 17.8657 19.3432 18.9095 18.7931 19.4596C18.243 20.0097 17.1992 20.4165 15 20.4165V23.4165ZM22.75 15.6665V9.6665H19.75V15.6665H22.75ZM22.75 9.6665C22.75 7.25567 22.3368 5.17447 20.9144 3.75209C19.492 2.32972 17.4108 1.9165 15 1.9165V4.9165C17.1992 4.9165 18.243 5.32329 18.7931 5.87341C19.3432 6.42354 19.75 7.46733 19.75 9.6665H22.75ZM15 1.9165H9V4.9165H15V1.9165Z" fill="#101010" mask="url(#path-1-inside-1_169_818)"/>
</g>
<g id="Vector_2">
<mask id="path-3-inside-2_169_818" fill="white">
<path d="M12 16.9165C9.66 16.9165 7.75 15.0065 7.75 12.6665C7.75 10.3265 9.66 8.4165 12 8.4165C14.34 8.4165 16.25 10.3265 16.25 12.6665C16.25 15.0065 14.34 16.9165 12 16.9165ZM12 9.9165C10.48 9.9165 9.25 11.1465 9.25 12.6665C9.25 14.1865 10.48 15.4165 12 15.4165C13.52 15.4165 14.75 14.1865 14.75 12.6665C14.75 11.1465 13.52 9.9165 12 9.9165Z"/>
</mask>
<path d="M12 16.9165C9.66 16.9165 7.75 15.0065 7.75 12.6665C7.75 10.3265 9.66 8.4165 12 8.4165C14.34 8.4165 16.25 10.3265 16.25 12.6665C16.25 15.0065 14.34 16.9165 12 16.9165ZM12 9.9165C10.48 9.9165 9.25 11.1465 9.25 12.6665C9.25 14.1865 10.48 15.4165 12 15.4165C13.52 15.4165 14.75 14.1865 14.75 12.6665C14.75 11.1465 13.52 9.9165 12 9.9165Z" fill="#101010"/>
<path d="M12 15.4165C10.4884 15.4165 9.25 14.1781 9.25 12.6665H6.25C6.25 15.8349 8.83157 18.4165 12 18.4165V15.4165ZM9.25 12.6665C9.25 11.1549 10.4884 9.9165 12 9.9165V6.9165C8.83157 6.9165 6.25 9.49808 6.25 12.6665H9.25ZM12 9.9165C13.5116 9.9165 14.75 11.1549 14.75 12.6665H17.75C17.75 9.49808 15.1684 6.9165 12 6.9165V9.9165ZM14.75 12.6665C14.75 14.1781 13.5116 15.4165 12 15.4165V18.4165C15.1684 18.4165 17.75 15.8349 17.75 12.6665H14.75ZM12 8.4165C9.65157 8.4165 7.75 10.3181 7.75 12.6665H10.75C10.75 11.9749 11.3084 11.4165 12 11.4165V8.4165ZM7.75 12.6665C7.75 15.0149 9.65157 16.9165 12 16.9165V13.9165C11.3084 13.9165 10.75 13.3581 10.75 12.6665H7.75ZM12 16.9165C14.3484 16.9165 16.25 15.0149 16.25 12.6665H13.25C13.25 13.3581 12.6916 13.9165 12 13.9165V16.9165ZM16.25 12.6665C16.25 10.3181 14.3484 8.4165 12 8.4165V11.4165C12.6916 11.4165 13.25 11.9749 13.25 12.6665H16.25Z" fill="#101010" mask="url(#path-3-inside-2_169_818)"/>
</g>
<path id="Vector_3" d="M16.7595 7.08299C16.7756 7.05068 16.7933 7.02304 16.8184 6.99198L16.8371 6.97583L16.8507 6.96411C16.851 6.96389 16.8513 6.96367 16.8515 6.96346L16.856 6.96045C16.8593 6.95824 16.8618 6.95676 16.8633 6.95587L16.9077 6.94107L16.9386 6.92566L16.9433 6.92497L16.9703 6.91908C17.0175 6.90876 17.099 6.92038 17.1733 6.98207C17.1871 6.99856 17.1957 7.0105 17.2015 7.01942C17.209 7.03092 17.2146 7.04165 17.22 7.05564L17.2237 7.06531L17.2277 7.07487C17.2457 7.11815 17.25 7.15018 17.25 7.16641C17.25 7.18263 17.2457 7.21466 17.2277 7.25795C17.2156 7.28687 17.1996 7.3154 17.1778 7.3442C17.149 7.36603 17.1205 7.38205 17.0915 7.3941C17.0483 7.41214 17.0162 7.41641 17 7.41641C16.9838 7.41641 16.9517 7.41214 16.9085 7.3941C16.8785 7.38162 16.849 7.36487 16.8191 7.34182C16.7813 7.29595 16.7666 7.26835 16.7623 7.25795C16.7588 7.24952 16.75 7.22188 16.75 7.16641C16.75 7.1228 16.7554 7.09639 16.7595 7.08299Z" fill="#101010" stroke="#101010" stroke-width="1.5"/>
</g>
</svg>
