<svg width="24" height="25" viewBox="0 0 24 25" fill="none" xmlns="http://www.w3.org/2000/svg">
<g id="icons/whatsapp">
<path id="Vector" d="M3 21.6667L4.65 17.8667C3.38766 16.0748 2.82267 13.8838 3.06104 11.7048C3.29942 9.52589 4.32479 7.50886 5.94471 6.03224C7.56463 4.55562 9.66775 3.72093 11.8594 3.68482C14.051 3.6487 16.1805 4.41364 17.8482 5.83609C19.5159 7.25853 20.6071 9.24069 20.9172 11.4106C21.2272 13.5805 20.7347 15.7889 19.5321 17.6215C18.3295 19.454 16.4994 20.7847 14.3854 21.3638C12.2713 21.9429 10.0186 21.7306 8.05 20.7667L3 21.6667Z" stroke="#101010" stroke-width="1.5" stroke-linecap="round" stroke-linejoin="round"/>
<path id="Vector_2" d="M9 10.6665C9 10.7991 9.05268 10.9263 9.14645 11.0201C9.24021 11.1138 9.36739 11.1665 9.5 11.1665C9.63261 11.1665 9.75979 11.1138 9.85355 11.0201C9.94732 10.9263 10 10.7991 10 10.6665V9.6665C10 9.5339 9.94732 9.40672 9.85355 9.31295C9.75979 9.21918 9.63261 9.1665 9.5 9.1665C9.36739 9.1665 9.24021 9.21918 9.14645 9.31295C9.05268 9.40672 9 9.5339 9 9.6665V10.6665ZM9 10.6665C9 11.9926 9.52678 13.2644 10.4645 14.202C11.4021 15.1397 12.6739 15.6665 14 15.6665M14 15.6665H15C15.1326 15.6665 15.2598 15.6138 15.3536 15.5201C15.4473 15.4263 15.5 15.2991 15.5 15.1665C15.5 15.0339 15.4473 14.9067 15.3536 14.813C15.2598 14.7192 15.1326 14.6665 15 14.6665H14C13.8674 14.6665 13.7402 14.7192 13.6464 14.813C13.5527 14.9067 13.5 15.0339 13.5 15.1665C13.5 15.2991 13.5527 15.4263 13.6464 15.5201C13.7402 15.6138 13.8674 15.6665 14 15.6665Z" stroke="#101010" stroke-width="1.5" stroke-linecap="round" stroke-linejoin="round"/>
</g>
</svg>
