<svg width="23" height="24" viewBox="0 0 23 24" fill="none" xmlns="http://www.w3.org/2000/svg">
<g clip-path="url(#clip0_169_152)">
<path d="M18.715 9.60244C18.7078 9.58035 18.6974 9.55955 18.6845 9.54047L18.6379 9.4889C18.6202 9.47405 18.6007 9.46177 18.5798 9.45239L18.5129 9.43311L13.7282 8.74279L13.4675 8.70557L13.3517 8.47011L11.2081 4.13596C11.1983 4.11613 11.1853 4.09781 11.1708 4.08137L11.1216 4.03781C11.1032 4.02563 11.083 4.01684 11.0622 4.00994L10.9975 3.99716C10.9755 3.99593 10.9536 3.99752 10.9323 4.00198L10.8704 4.0232C10.8312 4.0431 10.7986 4.07404 10.7747 4.11089L10.7575 4.14321L8.62634 8.47842L8.51053 8.71545L8.24964 8.75328L3.4651 9.45266L3.46417 9.45296C3.44241 9.45617 3.42107 9.46179 3.40106 9.47046L3.34463 9.50529C3.32753 9.51897 3.3121 9.53446 3.29923 9.55194L3.26704 9.61071C3.25918 9.63121 3.25407 9.65259 3.2518 9.67423L3.25384 9.74033C3.26081 9.78319 3.27987 9.82274 3.30712 9.85649L3.33441 9.88662L6.78981 13.2414L6.97823 13.4255L6.93422 13.6843L6.12173 18.4503C6.11426 18.494 6.11888 18.5392 6.13446 18.5807L6.16466 18.6386C6.17746 18.6565 6.19288 18.6725 6.21005 18.6865C6.22728 18.7005 6.24652 18.7125 6.26664 18.7215L6.33014 18.7398C6.35182 18.7431 6.37368 18.7435 6.39529 18.7411L6.45901 18.7255L6.50796 18.7023L10.7625 16.4594L10.9955 16.3362L11.2285 16.4584L15.511 18.7084C15.5305 18.7187 15.5517 18.7266 15.573 18.7314L15.6387 18.7377C15.6608 18.7367 15.6827 18.7324 15.7036 18.7257L15.7634 18.698C15.782 18.6861 15.7984 18.6713 15.8131 18.6551L15.8508 18.6007C15.8699 18.5633 15.8794 18.5217 15.8782 18.4798L15.872 18.4325L15.0507 13.6806L15.0052 13.4212L15.1938 13.2374L18.6519 9.85927C18.6686 9.84293 18.6831 9.8244 18.6946 9.80427L18.72 9.74051C18.7311 9.69519 18.7295 9.64681 18.715 9.60244Z" fill="#FEE700" stroke="#1B2F7C"/>
</g>
<defs>
<clipPath id="clip0_169_152">
<rect width="18" height="18" fill="white" transform="matrix(-0.310016 -0.950731 -0.950731 0.310016 22.6935 17.7664)"/>
</clipPath>
</defs>
</svg>
